<svg width="31" height="31" viewBox="0 0 31 31" fill="none" xmlns="http://www.w3.org/2000/svg">
<path fill-rule="evenodd" clip-rule="evenodd" d="M0 13.7778C0 7.28286 -2.05305e-07 4.03542 2.0177 2.0177C4.03542 -2.05305e-07 7.28286 0 13.7778 0H17.2222C23.7171 0 26.9647 -2.05305e-07 28.9822 2.0177C31 4.03542 31 7.28286 31 13.7778V17.2222C31 23.7171 31 26.9647 28.9822 28.9822C26.9647 31 23.7171 31 17.2222 31H13.7778C7.28286 31 4.03542 31 2.0177 28.9822C-2.05305e-07 26.9647 0 23.7171 0 17.2222V13.7778ZM25.8333 7.75C25.8333 9.17674 24.6767 10.3333 23.25 10.3333C21.8233 10.3333 20.6667 9.17674 20.6667 7.75C20.6667 6.32326 21.8233 5.16667 23.25 5.16667C24.6767 5.16667 25.8333 6.32326 25.8333 7.75ZM18.9444 17.2222C18.9444 19.1246 17.4024 20.6667 15.5 20.6667C13.5976 20.6667 12.0556 19.1246 12.0556 17.2222C12.0556 15.3199 13.5976 13.7778 15.5 13.7778C17.4024 13.7778 18.9444 15.3199 18.9444 17.2222ZM22.3889 17.2222C22.3889 21.0268 19.3046 24.1111 15.5 24.1111C11.6954 24.1111 8.61111 21.0268 8.61111 17.2222C8.61111 13.4177 11.6954 10.3333 15.5 10.3333C19.3046 10.3333 22.3889 13.4177 22.3889 17.2222Z" fill="#007AFF"/>
</svg>
