<svg width="144" height="38" viewBox="0 0 144 38" fill="none" xmlns="http://www.w3.org/2000/svg">
<path d="M41.74 30V15.51H45.7V30H41.74ZM43.72 13.17C43.08 13.17 42.55 12.96 42.13 12.54C41.71 12.1 41.5 11.56 41.5 10.92C41.5 10.3 41.71 9.77 42.13 9.33C42.55 8.89 43.08 8.67 43.72 8.67C44.38 8.67 44.91 8.89 45.31 9.33C45.73 9.77 45.94 10.3 45.94 10.92C45.94 11.56 45.73 12.1 45.31 12.54C44.91 12.96 44.38 13.17 43.72 13.17ZM49.1814 30V15.51H53.1114V30H49.1814ZM58.6314 30V21.45C58.6314 20.61 58.3614 19.96 57.8214 19.5C57.3014 19.02 56.6514 18.78 55.8714 18.78C55.3514 18.78 54.8814 18.89 54.4614 19.11C54.0414 19.31 53.7114 19.61 53.4714 20.01C53.2314 20.41 53.1114 20.89 53.1114 21.45L51.5814 20.7C51.5814 19.58 51.8214 18.61 52.3014 17.79C52.8014 16.97 53.4714 16.34 54.3114 15.9C55.1514 15.44 56.1014 15.21 57.1614 15.21C58.1614 15.21 59.0714 15.44 59.8914 15.9C60.7114 16.34 61.3614 16.97 61.8414 17.79C62.3214 18.59 62.5614 19.56 62.5614 20.7V30H58.6314ZM68.0814 30V21.45C68.0814 20.61 67.8114 19.96 67.2714 19.5C66.7514 19.02 66.1014 18.78 65.3214 18.78C64.8214 18.78 64.3514 18.89 63.9114 19.11C63.4914 19.31 63.1614 19.61 62.9214 20.01C62.6814 20.41 62.5614 20.89 62.5614 21.45L60.3114 20.91C60.3914 19.75 60.7014 18.75 61.2414 17.91C61.7814 17.05 62.4914 16.39 63.3714 15.93C64.2514 15.45 65.2314 15.21 66.3114 15.21C67.3914 15.21 68.3614 15.44 69.2214 15.9C70.0814 16.34 70.7614 16.98 71.2614 17.82C71.7614 18.66 72.0114 19.66 72.0114 20.82V30H68.0814ZM81.257 30.3C79.937 30.3 78.747 29.97 77.687 29.31C76.627 28.65 75.797 27.75 75.197 26.61C74.597 25.47 74.297 24.19 74.297 22.77C74.297 21.33 74.597 20.04 75.197 18.9C75.797 17.76 76.627 16.86 77.687 16.2C78.747 15.54 79.937 15.21 81.257 15.21C82.297 15.21 83.227 15.42 84.047 15.84C84.867 16.26 85.517 16.85 85.997 17.61C86.497 18.35 86.767 19.19 86.807 20.13V25.35C86.767 26.31 86.497 27.16 85.997 27.9C85.517 28.64 84.867 29.23 84.047 29.67C83.227 30.09 82.297 30.3 81.257 30.3ZM81.977 26.67C83.077 26.67 83.967 26.31 84.647 25.59C85.327 24.85 85.667 23.9 85.667 22.74C85.667 21.98 85.507 21.31 85.187 20.73C84.887 20.13 84.457 19.67 83.897 19.35C83.357 19.01 82.717 18.84 81.977 18.84C81.257 18.84 80.617 19.01 80.057 19.35C79.517 19.67 79.087 20.13 78.767 20.73C78.467 21.31 78.317 21.98 78.317 22.74C78.317 23.52 78.467 24.21 78.767 24.81C79.087 25.39 79.517 25.85 80.057 26.19C80.617 26.51 81.257 26.67 81.977 26.67ZM85.457 30V26.1L86.087 22.56L85.457 19.08V15.51H89.357V30H85.457ZM98.8938 36.42C97.3538 36.42 95.9938 36.14 94.8138 35.58C93.6338 35.04 92.6938 34.27 91.9938 33.27L94.4838 30.78C95.0438 31.44 95.6638 31.94 96.3438 32.28C97.0438 32.64 97.8838 32.82 98.8638 32.82C100.084 32.82 101.044 32.51 101.744 31.89C102.464 31.27 102.824 30.41 102.824 29.31V25.68L103.484 22.5L102.854 19.32V15.51H106.754V29.25C106.754 30.69 106.414 31.94 105.734 33C105.074 34.08 104.154 34.92 102.974 35.52C101.794 36.12 100.434 36.42 98.8938 36.42ZM98.7138 29.61C97.4138 29.61 96.2438 29.3 95.2038 28.68C94.1638 28.04 93.3438 27.17 92.7438 26.07C92.1638 24.97 91.8738 23.74 91.8738 22.38C91.8738 21.02 92.1638 19.8 92.7438 18.72C93.3438 17.64 94.1638 16.79 95.2038 16.17C96.2438 15.53 97.4138 15.21 98.7138 15.21C99.7938 15.21 100.744 15.42 101.564 15.84C102.404 16.26 103.064 16.84 103.544 17.58C104.024 18.3 104.284 19.15 104.324 20.13V24.69C104.284 25.65 104.014 26.51 103.514 27.27C103.034 28.01 102.374 28.59 101.534 29.01C100.714 29.41 99.7738 29.61 98.7138 29.61ZM99.4938 26.04C100.214 26.04 100.834 25.89 101.354 25.59C101.894 25.27 102.314 24.84 102.614 24.3C102.914 23.74 103.064 23.11 103.064 22.41C103.064 21.69 102.914 21.06 102.614 20.52C102.314 19.98 101.894 19.56 101.354 19.26C100.834 18.94 100.214 18.78 99.4938 18.78C98.7738 18.78 98.1438 18.94 97.6038 19.26C97.0638 19.56 96.6438 19.99 96.3438 20.55C96.0438 21.09 95.8938 21.71 95.8938 22.41C95.8938 23.09 96.0438 23.71 96.3438 24.27C96.6438 24.81 97.0638 25.24 97.6038 25.56C98.1438 25.88 98.7738 26.04 99.4938 26.04ZM110.207 30V15.51H114.167V30H110.207ZM112.187 13.17C111.547 13.17 111.017 12.96 110.597 12.54C110.177 12.1 109.967 11.56 109.967 10.92C109.967 10.3 110.177 9.77 110.597 9.33C111.017 8.89 111.547 8.67 112.187 8.67C112.847 8.67 113.377 8.89 113.777 9.33C114.197 9.77 114.407 10.3 114.407 10.92C114.407 11.56 114.197 12.1 113.777 12.54C113.377 12.96 112.847 13.17 112.187 13.17ZM119.568 30V13.95C119.568 12.79 119.818 11.77 120.318 10.89C120.818 9.99 121.528 9.28 122.448 8.76C123.368 8.24 124.448 7.98 125.688 7.98C126.628 7.98 127.438 8.14 128.118 8.46C128.798 8.78 129.408 9.22 129.948 9.78L127.458 12.3C127.238 12.08 126.998 11.91 126.738 11.79C126.478 11.67 126.148 11.61 125.748 11.61C125.028 11.61 124.468 11.81 124.068 12.21C123.688 12.59 123.498 13.14 123.498 13.86V30H119.568ZM116.208 18.96V15.51H127.788V18.96H116.208ZM134.425 30.12L128.365 15.51H132.625L136.645 26.67H135.205L139.375 15.51H143.665L137.215 30.12H134.425ZM130.405 36.06L134.815 26.73L137.215 30.12L134.575 36.06H130.405Z" fill="black"/>
<path fill-rule="evenodd" clip-rule="evenodd" d="M0 17.7778C0 11.2829 -2.05305e-07 8.03542 2.0177 6.0177C4.03542 4 7.28286 4 13.7778 4H17.2222C23.7171 4 26.9647 4 28.9822 6.0177C31 8.03542 31 11.2829 31 17.7778V21.2222C31 27.7171 31 30.9647 28.9822 32.9822C26.9647 35 23.7171 35 17.2222 35H13.7778C7.28286 35 4.03542 35 2.0177 32.9822C-2.05305e-07 30.9647 0 27.7171 0 21.2222V17.7778ZM25.8333 11.75C25.8333 13.1767 24.6767 14.3333 23.25 14.3333C21.8233 14.3333 20.6667 13.1767 20.6667 11.75C20.6667 10.3233 21.8233 9.16667 23.25 9.16667C24.6767 9.16667 25.8333 10.3233 25.8333 11.75ZM18.9444 21.2222C18.9444 23.1246 17.4024 24.6667 15.5 24.6667C13.5976 24.6667 12.0556 23.1246 12.0556 21.2222C12.0556 19.3199 13.5976 17.7778 15.5 17.7778C17.4024 17.7778 18.9444 19.3199 18.9444 21.2222ZM22.3889 21.2222C22.3889 25.0268 19.3046 28.1111 15.5 28.1111C11.6954 28.1111 8.61111 25.0268 8.61111 21.2222C8.61111 17.4177 11.6954 14.3333 15.5 14.3333C19.3046 14.3333 22.3889 17.4177 22.3889 21.2222Z" fill="#007AFF"/>
</svg>
