<svg width="45" height="45" viewBox="0 0 45 45" fill="none" xmlns="http://www.w3.org/2000/svg">
<rect width="45" height="45" rx="10" fill="#E1E9FF"/>
<path d="M23.5679 26.6216C23.4222 26.781 23.2162 26.8718 23.0002 26.8718C22.7842 26.8718 22.5783 26.781 22.4325 26.6216L18.3299 22.1345C18.0433 21.8209 18.0651 21.3344 18.3786 21.0477C18.6921 20.761 19.1787 20.7828 19.4654 21.0963L22.231 24.1212V12.7692C22.231 12.3444 22.5754 12 23.0002 12C23.425 12 23.7694 12.3444 23.7694 12.7692V24.1212L26.5351 21.0963C26.8218 20.7828 27.3083 20.761 27.6219 21.0477C27.9354 21.3344 27.9571 21.8209 27.6705 22.1345L23.5679 26.6216Z" fill="#1C274C" stroke="#1C274C"/>
<path d="M14.5385 25.0778C14.5385 24.653 14.1941 24.3086 13.7692 24.3086C13.3444 24.3086 13 24.653 13 25.0778V25.1341C13 26.5368 13 27.6674 13.1195 28.5566C13.2436 29.4798 13.5092 30.257 14.1265 30.8743C14.7439 31.4918 15.5212 31.7573 16.4444 31.8814C17.3336 32.0009 18.4641 32.0009 19.8668 32.0009H26.1332C27.5359 32.0009 28.6665 32.0009 29.5557 31.8814C30.4789 31.7573 31.2561 31.4918 31.8735 30.8743C32.4909 30.257 32.7564 29.4798 32.8805 28.5566C33 27.6674 33 26.5368 33 25.1341V25.0778C33 24.653 32.6556 24.3086 32.2308 24.3086C31.8059 24.3086 31.4615 24.653 31.4615 25.0778C31.4615 26.55 31.4599 27.5768 31.3558 28.3516C31.2546 29.1042 31.0695 29.5026 30.7856 29.7865C30.5017 30.0704 30.1033 30.2555 29.3507 30.3567C28.5759 30.4608 27.5491 30.4624 26.0769 30.4624H19.9231C18.4509 30.4624 17.4241 30.4608 16.6494 30.3567C15.8968 30.2555 15.4982 30.0704 15.2144 29.7865C14.9305 29.5026 14.7454 29.1042 14.6443 28.3516C14.5401 27.5768 14.5385 26.55 14.5385 25.0778Z" fill="#1C274C" stroke="#1C274C"/>
</svg>
